<?xml version="1.0" encoding="UTF-8"?>
<!DOCTYPE svg PUBLIC "-//W3C//DTD SVG 1.1//EN" "http://www.w3.org/Graphics/SVG/1.1/DTD/svg11.dtd">
<!-- Creator: CorelDRAW 2020 (64-Bit) -->
<svg xmlns="http://www.w3.org/2000/svg" xml:space="preserve" width="30.9034mm" height="19.4256mm" version="1.1" style="shape-rendering:geometricPrecision; text-rendering:geometricPrecision; image-rendering:optimizeQuality; fill-rule:evenodd; clip-rule:evenodd"
viewBox="0 0 3090.34 1942.56"
 xmlns:xlink="http://www.w3.org/1999/xlink"
 xmlns:xodm="http://www.corel.com/coreldraw/odm/2003">
 <defs>
  <style type="text/css">
   <![CDATA[
    .fil1 {fill:#C2913C;fill-rule:nonzero}
    .fil0 {fill:#2B2929;fill-rule:nonzero}
    .fil5 {fill:#78C267;fill-rule:nonzero}
    .fil4 {fill:#54B952;fill-rule:nonzero}
    .fil3 {fill:#38A752;fill-rule:nonzero}
    .fil2 {fill:#3A6DB3;fill-rule:nonzero}
   ]]>
  </style>
 </defs>
 <g id="Layer_x0020_1">
  <metadata id="CorelCorpID_0Corel-Layer"/>
  <g id="_1943077603072">
   <path class="fil0" d="M122.79 1690.41l0 -5.67c-13.99,0 -25.78,-8.67 -25.78,-33.58l0 -247.45c0,-23.15 8.31,-33.56 24.47,-33.56l0 -5.68 -121.47 0 0 5.68c12.24,0 26.22,8.74 26.22,32.25l0 250.07c0,28.77 -13.11,32.27 -24.03,32.27l0 5.67 120.59 0zm337.3 -73.83l-6.99 -2.19c-20.1,34.96 -63.36,53.74 -107.48,53.74 -62.92,0 -113.6,-54.17 -113.6,-138.51 0,-78.2 39.75,-142 117.97,-142 40.19,0 74.71,18.8 90.87,43.26l7.44 -2.18 -14.87 -63.36 -6.98 0c0,0 -2.63,3.07 -8.75,3.07 -6.98,0 -35.82,-9.18 -81.25,-9.18 -120.16,0 -177.84,84.32 -177.84,169.08 0,64.23 41.52,168.66 182.2,168.66 53.74,0 78.65,-12.23 86.95,-12.23 6.55,0 10.05,3.49 10.05,3.49l8.3 0 13.98 -71.65zm365.7 -80.84c0,-137.19 -103.99,-178.7 -176.51,-178.7 -122.78,0 -176.96,88.26 -176.96,170.84 0,85.2 62.49,169.52 176.52,169.52 117.96,0 176.95,-86.07 176.95,-161.66zm-74.27 -2.19c0,91.76 -48.94,132.84 -100.93,132.84 -68.16,0 -104.43,-64.68 -104.43,-144.63 0,-100.92 60.3,-133.26 104,-133.26 41.93,0 101.36,33.2 101.36,145.05zm428.61 -163.4l0 -5.68 -81.27 0 0 5.68c13.99,0 27.1,8.3 27.1,34.01l0 157.94 -167.78 -197.63 -98.31 0 0 5.68c13.98,0 25.34,5.68 25.34,34.88l0 249.19c0,25.27 -9.61,30.52 -23.6,30.52l0 5.67 77.78 0 0 -5.67c-16.17,0 -25.34,-8.67 -25.34,-34.01l0 -229.98 242.06 286.7 0 -305.91c0,-22.65 7.86,-31.39 24.02,-31.39zm397.6 -5.68l-207.98 0 0 5.68c26.22,0 25.78,27.89 25.78,35.75l0 246.5c0,23.16 -10.05,32.34 -24.02,32.34l0 5.67 118.4 0 0 -5.67c-20.09,0 -24.03,-9.62 -24.03,-38.01l0 -106.62 29.71 0c54.18,0 66.85,0 68.6,23.16l6.56 0 0 -71.58 -6.56 0c-3.93,23.08 -13.55,20.46 -68.16,20.46l-30.15 0 0 -120.59 41.95 0c46.31,0 56.36,8.67 55.48,23.08l6.12 0.44 8.3 -50.61zm327.7 325.94l0 -5.67c-14.42,-1.31 -26.66,-15.73 -31.91,-23.6l-85.19 -128.45c25.34,-7.43 62.48,-27.89 62.48,-82.8 0,-97.66 -134.14,-85.42 -150.74,-85.42l-98.31 0 0 5.68c11.36,0 26.22,8.3 26.22,32.25l0 250c0,29.27 -17.91,32.34 -24.03,32.34l0 5.67 118.4 0 0 -5.67c-4.8,0 -24.9,-5.69 -24.9,-33.65l0 -103.12c11.36,0 14.86,0 24.47,-1.31l86.94 143.75 96.57 0zm-124.53 -234.84c0,37.06 -22.71,65.75 -64.23,65.75 0,0 -16.6,0.44 -19.22,0l0 -131.07 22.72 0c34.08,0 60.73,19.58 60.73,65.32zm378.37 183.29l-6.99 -3.06c-10.05,15.29 -34.52,27.09 -62.48,27.09l-48.5 0c-17.04,0 -27.96,-4.81 -27.96,-24.91l0 -98.74 37.57 0c43.26,0 67.3,-3.06 67.3,23.15l6.98 0 0 -72.45 -6.98 0c0,27.02 -30.15,21.77 -66.85,21.77l-38.02 0 0 -119.71 41.07 0c50.69,0 62.04,2.62 63.8,21.33l5.67 0.87 6.99 -49.73 -213.66 0 0 5.68c10.49,0 25.35,6.99 25.35,30.08l0 252.17c0,27.53 -8.74,32.34 -22.28,32.34l0 5.67 216.27 0 22.72 -51.55zm226.76 -31.9c0,-57.23 -35.83,-80.39 -90,-114.04 -39.77,-24.46 -58.99,-38.88 -58.99,-64.66 0,-22.29 17.04,-41.95 46.31,-41.95 40.2,0 66.85,18.8 75.6,53.75l6.55 0 0 -75.15 -6.55 0c-3.07,3.05 -6.12,3.93 -9.62,3.93 -10.92,0 -27.09,-10.05 -67.72,-10.05 -60.3,0 -99.19,36.7 -99.19,88.26 0,58.54 40.64,82.57 81.27,108.79 41.95,27.09 67.73,37.58 67.73,67.72 0,24.03 -19.66,45.88 -60.3,45.88 -50.25,0 -81.71,-35.82 -87.82,-58.98l-7 0.43 10.49 79.52 6.55 0c0,0 5.25,-4.36 11.8,-4.36 6.12,0 36.7,10.92 77.34,10.92 51.56,0 103.55,-29.27 103.55,-90.01zm338.61 9.62l-7 -2.19c-20.09,34.96 -63.35,53.74 -107.47,53.74 -62.92,0 -113.6,-54.17 -113.6,-138.51 0,-78.2 39.75,-142 117.97,-142 40.19,0 74.71,18.8 90.87,43.26l7.44 -2.18 -14.87 -63.36 -6.98 0c0,0 -2.63,3.07 -8.75,3.07 -6.98,0 -35.82,-9.18 -81.25,-9.18 -120.16,0 -177.84,84.32 -177.84,169.08 0,64.23 41.52,168.66 182.2,168.66 53.74,0 78.65,-12.23 86.95,-12.23 6.55,0 10.05,3.49 10.05,3.49l8.3 0 13.98 -71.65zm365.7 -80.84c0,-137.19 -103.99,-178.7 -176.51,-178.7 -122.78,0 -176.96,88.26 -176.96,170.84 0,85.2 62.49,169.52 176.52,169.52 117.96,0 176.95,-86.07 176.95,-161.66zm-74.27 -2.19c0,91.76 -48.94,132.84 -100.93,132.84 -68.16,0 -104.43,-64.68 -104.43,-144.63 0,-100.92 60.3,-133.26 104,-133.26 41.93,0 101.36,33.2 101.36,145.05z"/>
   <path class="fil1" d="M578.9 1939.94l24.47 0 15.3 -38.23 73.62 0 15.51 38.23 24.46 0 -66.19 -154.67 -19.01 0 -68.16 154.67zm47.19 -56.58l29.28 -71.01 0.43 0 28.84 71.01 -58.55 0zm121.25 56.58l19.66 0 0 -53.74c0,-23.38 12.67,-34.08 26.88,-34.08 19,0 21.85,13.98 21.85,33.64l0 54.18 19.66 0 0 -56.58c0,-18.35 7.42,-31.24 26.43,-31.24 19,0 22.28,14.41 22.28,30.14l0 57.68 19.67 0 0 -60.3c0,-23.16 -7.44,-45.88 -39.33,-45.88 -12.46,0 -26,6.56 -32.77,19.23 -6.55,-12.67 -17.04,-19.23 -32.33,-19.23 -18.57,0 -31.25,12.68 -33.21,18.79l-0.44 0 0 -16.16 -18.35 0 0 103.55zm186.13 0l19.66 0 0 -14.85 0.44 0c7.65,11.13 22.07,17.47 36.05,17.47 32.12,0 52.65,-23.81 52.65,-54.4 0,-31.02 -20.75,-54.4 -52.65,-54.4 -14.86,0 -29.06,6.78 -36.05,17.48l-0.44 0 0 -76.46 -19.66 0 0 165.16zm53.74 -15.73c-20.97,0 -34.08,-15.08 -34.08,-36.05 0,-20.98 13.11,-36.04 34.08,-36.04 20.97,0 34.08,15.06 34.08,36.04 0,20.97 -13.11,36.05 -34.08,36.05zm81.28 15.73l19.66 0 0 -103.55 -19.66 0 0 103.55zm-4.59 -140.7c0,7.87 6.55,14.42 14.42,14.42 7.86,0 14.41,-6.55 14.41,-14.42 0,-7.86 -6.55,-14.42 -14.41,-14.42 -7.87,0 -14.42,6.56 -14.42,14.42zm153.36 96.13l0 -6.99c0,-26.66 -13.99,-54.62 -50.46,-54.62 -31.03,0 -53.53,23.38 -53.53,54.4 0,30.81 20.53,54.4 53.3,54.4 19.89,0 34.96,-6.99 45.88,-21.19l-14.85 -11.36c-7.65,9.39 -16.38,15.51 -28.41,15.51 -18.12,0 -34.94,-12.01 -34.94,-30.15l83.01 0zm-83.01 -15.73c0,-13.77 12.66,-30.15 32.1,-30.15 19.88,0 29.5,12.9 29.94,30.15l-62.04 0zm106.6 60.3l19.66 0 0 -53.31c0,-24.03 12.46,-34.51 28.84,-34.51 12.46,0 23.59,7.2 23.59,26.64l0 61.18 19.67 0 0 -66.63c0,-27.53 -17.48,-39.55 -37.57,-39.55 -15.95,0 -29.06,7.65 -34.08,18.57l-0.45 0 0 -15.94 -19.66 0 0 103.55zm210.39 -89.57c-10.27,-11.15 -24.69,-16.39 -39.76,-16.39 -32.34,0 -54.18,22.72 -54.18,54.62 0,31.89 22.29,53.96 54.18,53.96 15.07,0 29.05,-4.59 39.32,-15.95l-13.98 -13.98c-6.56,7.65 -14.2,11.58 -25.12,11.58 -20.31,0 -33.42,-15.73 -33.42,-35.18 0,-19.44 10.92,-36.7 32.32,-36.7 10.93,0 18.57,3.93 25.79,11.58l14.85 -13.54zm114.25 45l0 -6.99c0,-26.66 -13.98,-54.62 -50.46,-54.62 -31.02,0 -53.52,23.38 -53.52,54.4 0,30.81 20.53,54.4 53.29,54.4 19.89,0 34.96,-6.99 45.88,-21.19l-14.85 -11.36c-7.65,9.39 -16.38,15.51 -28.4,15.51 -18.13,0 -34.95,-12.01 -34.95,-30.15l83.01 0zm-83.01 -15.73c0,-13.77 12.66,-30.15 32.11,-30.15 19.88,0 29.5,12.9 29.93,30.15l-62.04 0zm172.36 60.3l103.78 0 0 -19.66 -82.81 0 0 -49.6 73.41 0 0 -19.66 -73.41 0 0 -46.09 78.88 0 0 -19.66 -99.85 0 0 154.67zm128.46 0l19.66 0 0 -53.31c0,-24.03 12.46,-34.51 28.84,-34.51 12.45,0 23.59,7.2 23.59,26.64l0 61.18 19.66 0 0 -66.63c0,-27.53 -17.47,-39.55 -37.57,-39.55 -15.94,0 -29.05,7.65 -34.08,18.57l-0.44 0 0 -15.94 -19.66 0 0 103.55zm121.47 0l19.66 0 0 -52c0,-22.72 10.48,-33.2 29.71,-33.2 3.06,0 6.34,0.65 9.61,1.52l0.88 -21.18c-2.62,-0.88 -5.68,-1.32 -8.74,-1.32 -12.88,0 -25.99,7.65 -31.02,18.57l-0.44 0 0 -15.94 -19.66 0 0 103.55zm82.37 0l19.66 0 0 -103.55 -19.66 0 0 103.55zm-4.59 -140.7c0,7.87 6.55,14.42 14.41,14.42 7.87,0 14.42,-6.55 14.42,-14.42 0,-7.86 -6.55,-14.42 -14.42,-14.42 -7.86,0 -14.41,6.56 -14.41,14.42zm144.4 51.13c-10.27,-11.15 -24.69,-16.39 -39.76,-16.39 -32.33,0 -54.17,22.72 -54.17,54.62 0,31.89 22.28,53.96 54.17,53.96 15.07,0 29.06,-4.59 39.32,-15.95l-13.98 -13.98c-6.55,7.65 -14.2,11.58 -25.12,11.58 -20.31,0 -33.42,-15.73 -33.42,-35.18 0,-19.44 10.92,-36.7 32.32,-36.7 10.93,0 18.57,3.93 25.79,11.58l14.85 -13.54zm16.38 89.57l19.66 0 0 -53.31c0,-24.03 12.46,-34.51 28.84,-34.51 12.45,0 23.59,7.2 23.59,26.64l0 61.18 19.66 0 0 -66.63c0,-27.53 -17.47,-39.55 -37.57,-39.55 -15.94,0 -29.05,7.65 -34.08,18.57l-0.44 0 0 -77.55 -19.66 0 0 165.16zm219.34 -44.57l0 -6.99c0,-26.66 -13.98,-54.62 -50.46,-54.62 -31.02,0 -53.52,23.38 -53.52,54.4 0,30.81 20.53,54.4 53.29,54.4 19.89,0 34.96,-6.99 45.88,-21.19l-14.85 -11.36c-7.65,9.39 -16.38,15.51 -28.4,15.51 -18.13,0 -34.95,-12.01 -34.95,-30.15l83.01 0zm-83.01 -15.73c0,-13.77 12.66,-30.15 32.11,-30.15 19.88,0 29.5,12.9 29.93,30.15l-62.04 0zm210.38 -104.86l-19.66 0 0 76.46 -0.44 0c-6.99,-10.7 -21.19,-17.48 -36.04,-17.48 -31.9,0 -52.65,23.38 -52.65,54.4 0,30.59 20.53,54.4 52.65,54.4 13.97,0 28.39,-6.34 36.04,-17.47l0.44 0 0 14.85 19.66 0 0 -165.16zm-53.74 149.43c-20.97,0 -34.08,-15.08 -34.08,-36.05 0,-20.98 13.11,-36.04 34.08,-36.04 20.97,0 34.08,15.06 34.08,36.04 0,20.97 -13.11,36.05 -34.08,36.05z"/>
   <path class="fil2" d="M1455.73 1041.05c-16.87,11.73 -31.96,20.71 -27.8,24.46 4.16,3.76 30.67,-4.43 49.93,-20.11 -15.1,6.28 -22.13,-4.35 -22.13,-4.35z"/>
   <path class="fil3" d="M1908.28 1080.77c-8.28,-49.26 55.95,-82.49 77.9,-53.49 25.98,34.33 -34.99,25.92 -77.9,53.49z"/>
   <path class="fil3" d="M1147.99 927.24c24.04,-44.96 73.47,-30.67 74.77,-5.68 1.3,25 -64.9,-7.73 -74.77,5.68z"/>
   <path class="fil1" d="M939.77 1002.83c36.42,0 183.94,6.97 193.77,3.48 9.83,-3.49 1.58,-34.96 -4.93,-57.72 -6.5,-22.77 52.04,-96.42 62.44,-121.86 -11.7,40.17 -49.93,99.09 -35.62,129.89 14.3,30.8 29.13,54.89 48.64,62.93 19.51,8.03 574.09,-18.4 747.09,78.74 -111.86,-38.1 -467.26,-49.77 -611.46,-9.95 -28.62,17.41 70.43,113.09 70.43,113.09 -58.55,-48.2 -98.21,-92.03 -134.63,-98.72 -36.42,-6.7 -335.73,35.1 -335.73,35.1l0 -134.98z"/>
   <path class="fil1" d="M1806.76 1055.78c43.53,8.16 63.82,67.99 69.02,103.7 -10.4,-34.83 -59.57,-86.47 -94.82,-102.61l25.8 -1.09z"/>
   <path class="fil3" d="M1918.58 1082.13c60.86,-29.68 152.38,7.77 153.85,58l0 2.06c-0.14,6.71 -1.86,13.63 -5.51,20.63 -31.49,60.52 -128.56,-75.62 -148.34,-80.69z"/>
   <path class="fil3" d="M1346.16 1134.32c7.48,25.34 -50.98,60.67 -16.03,109.26 34.95,48.58 63.51,-59.65 16.03,-109.26z"/>
   <path class="fil3" d="M1912.74 1083.23c46.47,31.03 56.05,103.49 7.61,95.66 -48.45,-7.84 14,-55.97 -7.61,-95.66z"/>
   <path class="fil3" d="M1185.39 839.73c4.41,-11.67 -61.9,-56.19 -36.31,-77.57 25.58,-21.39 57.74,16.8 40.01,71.46 13.48,-25.68 44.6,-75.24 75.77,-51.87 38.37,28.77 -62.77,44.98 -71.98,55.3 44.98,-8.11 60.86,35.72 36.53,38.42 -21.06,2.34 -23.76,-36.78 -44.02,-35.74z"/>
   <path class="fil3" d="M1134.07 954.18c-7.74,-30.31 -74.04,-71.93 -91.08,-38.8 -22.11,42.97 82.01,26.69 91.08,38.8z"/>
   <path class="fil3" d="M1379.54 1169.28c61.59,13.07 125.8,78.07 77.18,114.87 -48.63,36.8 -47.84,-68.17 -77.18,-114.87z"/>
   <path class="fil3" d="M1352.27 1138.04c29,10.26 78.54,-27.79 90.15,1.54 15.09,38.16 -62.53,38.53 -90.15,-1.54z"/>
   <path class="fil3" d="M1856.63 1119.91c-1.45,-7.63 -35.96,18.63 -23.86,43.17 12.09,24.54 30.34,-8.93 23.86,-43.17z"/>
   <path class="fil3" d="M1870.56 1140.89c6.41,29.55 -30.52,62.72 -1.63,86.32 28.88,23.59 36.61,-45.65 1.63,-86.32z"/>
   <path class="fil1" d="M945.13 1008.61c-7.88,3.68 3.28,37.27 3.28,37.27l197.93 5.04c0,0 -203.63,5.37 -205.25,25.34 -0.32,3.92 62.9,18.28 81.12,18.49 74.56,0.88 214.38,-31.82 253.06,-27.53 27.33,3.02 83.21,84.99 90.27,87.08 7.05,2.09 -47.4,-61.26 -39.91,-88.24 11.48,-17.55 450.88,-28.91 573.06,10.2 -108.2,-51.28 -684.88,-55.23 -697.88,-59.38 -13,-4.15 -49.26,-46.14 -50.97,-72.92 -1.7,-26.79 19.7,-75.88 19.7,-75.88 0,0 -36.24,56.52 -32.47,76.62 3.76,20.11 19.76,63.47 16.56,66.85 -7.45,7.88 -193.07,-10.13 -208.5,-2.94z"/>
   <path class="fil1" d="M947.4 1122.52c0,0 302.92,-44.18 327.69,-43.09 24.78,1.09 43.81,36.28 43.81,36.28 0,0 -22.37,-17.89 -47.54,-20.4 -25.16,-2.51 -323.96,27.21 -323.96,27.21z"/>
   <path class="fil1" d="M1818.9 1065.64c18.83,-3.98 42.37,33.69 48.99,62.6 -14.78,-28.88 -64.82,-59.26 -48.99,-62.6z"/>
   <path class="fil1" d="M1296.82 1026.37c-43.63,-2.25 -96.47,13.35 -0.1,14.41 203.65,2.23 179.71,-5.16 0.1,-14.41z"/>
   <path class="fil4" d="M1943.28 1080.77c52.83,-28.41 140.17,22.2 120.68,65.22 -14.37,31.73 -74.14,-5.01 -104.99,-53.85 20.03,0 59.07,13.73 75.23,26.37 -15.51,-26.18 -68.27,-37.73 -90.92,-37.74z"/>
   <path class="fil4" d="M1913.91 1056.81c-8.51,-14.21 42.67,-53.03 67.4,-34.45 24.74,18.57 -32.49,42.39 -58.86,43.22 8.92,-18.38 32.87,-33.99 32.87,-33.99 -21.52,5.99 -41.41,25.22 -41.41,25.22z"/>
   <path class="fil4" d="M1926.01 1112.07c-14.12,9.09 -27.11,63.12 6.57,62.64 33.7,-0.48 18.27,-52.03 5.29,-63.65 -2.85,1.33 4.87,14.74 -3.66,43.76 0,-19.03 -8.2,-42.75 -8.2,-42.75z"/>
   <path class="fil4" d="M1844.09 1129.61c-15.45,4.14 -22.75,27.46 -4.9,35.9 17.86,8.44 19.41,-22.67 12.22,-31.76 -6.94,2.51 -12.22,22.15 -12.22,22.15 -1.62,-13.37 4.9,-26.29 4.9,-26.29z"/>
   <path class="fil4" d="M1881.41 1166.95c19.05,11.74 16.75,60.4 -5.63,58.31 -22.38,-2.08 -21.98,-46.43 -2.09,-58.31 6.91,8.17 7.31,37.42 7.31,37.42 4.87,-13.79 0.41,-37.42 0.41,-37.42z"/>
   <path class="fil4" d="M1348.48 1169.43c-18.26,-1.83 -38.55,55.44 -4.86,75.49 33.68,20.04 31.68,-55.14 23.95,-70.2 -6.5,-3.36 -18.67,46.73 -18.67,46.73 3.24,-27.94 4.86,-49.78 -0.42,-52.02z"/>
   <path class="fil4" d="M1416.68 1186.05c35.72,7.04 72.12,56.35 46.21,83.92 -25.92,27.58 -70.4,-33.59 -56.28,-74.67 22.65,12.42 38.89,47.93 38.89,47.93 0.81,-25.07 -28.82,-57.18 -28.82,-57.18z"/>
   <path class="fil4" d="M1390.3 1155.07c26.38,23.39 59.82,12.12 56.69,-10.03 -3.12,-22.15 -42.61,-16.95 -56.69,0 20.7,7.52 45.05,5.6 45.05,5.6 -11.77,8.6 -45.05,4.43 -45.05,4.43z"/>
   <path class="fil4" d="M1207.38 815.49c-6.89,-22.39 40.68,-52.02 57.48,-33.74 13.51,14.7 -19.74,36.54 -50.47,40.24 2.91,-10.03 21.73,-27.34 32.7,-31.43 -18.25,0.33 -39.71,24.93 -39.71,24.93z"/>
   <path class="fil4" d="M1160.98 758.76c22.54,-3.49 40.45,22.44 28.73,55 -6.49,-29.25 -22.67,-42.19 -22.67,-42.19 11.22,15.86 15,44.28 15,44.28 -24.99,-4.24 -50.03,-52.6 -21.06,-57.09z"/>
   <path class="fil4" d="M1209.44 838.04c12.86,-3.16 40.87,22.73 27.36,33.1 -13.52,10.37 -33.13,-20.34 -30.64,-26.37 2.5,-6.03 18.05,5.99 21.6,14.73 1.53,-10.46 -18.32,-21.46 -18.32,-21.46z"/>
   <path class="fil4" d="M1167.4 908.79c20.63,-18.66 56.46,-11.87 52.51,9.37 -3.96,21.24 -41.77,6.31 -49.21,1.72 3.89,-5.2 24.68,-13.2 35.24,-7.46 -10.06,-9.76 -38.54,-3.63 -38.54,-3.63z"/>
   <path class="fil4" d="M1115.58 932.8c-2.79,-23.83 -60.14,-42.87 -72.59,-17.42 -12.45,25.46 49.42,36.26 68.11,23.11 -17.27,-13.73 -47.94,-20.04 -49.61,-20.04 17.01,-4.02 54.09,14.35 54.09,14.35z"/>
   <path class="fil5" d="M2032.58 1120.74c-19.21,-10.65 -24.9,2.02 -8.13,15.5 16.78,13.47 36.26,0.1 8.13,-15.5z"/>
   <path class="fil5" d="M1976.83 1022.5c-18.93,-8.73 -30.42,10.25 -12.99,15.51 17.44,5.26 37.35,-4.27 12.99,-15.51z"/>
   <path class="fil5" d="M1464.36 1240.17c-4.46,-29.81 -20.64,-26.18 -16.32,-8.18 4.33,18.01 19.14,27.08 16.32,8.18z"/>
   <path class="fil1" d="M2218.69 358.15c-4.51,-2.75 -10.39,-5.21 -14.09,-8.88l-2.14 -4.16c-4.63,-10.56 -11.27,-21.64 -19.87,-29.42 -7.04,-6.37 -15.86,-11.13 -24.43,-15.07 -20.99,-9.63 -47.38,-14.21 -70.4,-11.4 -15.1,1.84 -29.05,6.37 -43.23,11.6l-1.08 -0.67c0,-4.77 -1.67,-10.63 -2.64,-15.32 -2.07,-9.96 -3.91,-20.27 -7.18,-29.93l-14.97 -50.46 -18.68 -76.1 -14.05 -79.87 -6.57 -48.47c-1.38,2.22 -2.56,4.34 -3.62,6.72 -5.78,12.49 -10.2,25.12 -12.34,38.78 -5.45,34.83 2.27,71.71 11.83,105.18l14.04 44.06 6.47 17.51c1.3,3.35 3.13,6.9 3.93,10.38 -1.87,-2.18 -2.81,-4.84 -3.95,-7.44l-4.95 -11.68 -29.2 -82.63 -18.8 -57.91 -8.8 -29.37c-1.92,-6.77 -3.48,-14.22 -6.21,-20.69l-0.79 0.22c-2.72,6.13 -5.75,12.47 -7.68,18.89 -9.6,31.81 -4.53,65.62 7.23,96.08 7.45,19.34 16.68,37.64 27.01,55.59l11.03 18.26c2.35,3.75 5.55,7.92 6.91,12.12 -2.55,-2.94 -4.56,-6.4 -6.69,-9.64l-9.96 -15.05c-21.73,-33.6 -41.24,-69.77 -56.08,-106.93l-9.91 -28.33 -3.7 9.15c-9.08,32.76 -3.69,67.18 13,96.71 7.7,13.66 16.06,26.95 25.79,39.28 11.93,15.15 25.56,28.89 38.98,42.69l-0.28 0.2 -137.44 -136.7 -2.73 -3.14c-0.13,13.97 0.49,27.77 3.65,41.45 5.33,23.03 17.33,42.63 33.76,59.39 13.13,13.41 27.2,26.15 42.56,36.97l22.3 14.43c-4.62,-0.88 -10.3,-5.05 -14.32,-7.47l-49.97 -33.53 -69.65 -53.52c2.17,29.72 14.78,56.8 37.58,76.33 13.12,11.22 27.75,20.93 42.79,29.34 6.95,3.89 14.26,7.11 21.1,11.18 -11.06,-3.56 -22.17,-9.85 -32.56,-15.1l-81.64 -46.1c4.36,19.63 11.88,38.68 25.36,53.91 7.05,7.96 15.61,14.58 24.55,20.27 12.89,8.2 26.72,12.66 40.81,18.09 0.75,0.28 1.31,0.65 1.97,1.11l-91.28 -28.93c5.27,11.97 12.67,21.83 21.13,31.72 10.63,12.42 21.36,23.15 35.89,30.95l-0.3 0.33 -14.78 -6.54c-2.64,-2.17 -6.23,-3.67 -9.14,-5.55l-21.38 -14.38 -55.26 -41.26c-23.7,-19.3 -46.3,-40.36 -68.02,-61.85l-26.08 -26.52c-30.38,-30.16 -61.48,-59.94 -88.18,-93.46 -21.1,-26.48 -38.76,-55.43 -58.68,-82.74 0.09,13.34 3.23,26.76 7.25,39.41 15.6,49.04 48.08,92.52 82.2,130.23l13.03 13.4 8.95 8.16c1,0.92 2.4,1.9 2.92,3.13l0.15 0.5 -14.41 -11.52 -1.24 -1.24c-4.08,-3.84 -8.71,-7.26 -12.97,-10.92l-25.2 -22.89c-25.22,-24.3 -48.27,-51.62 -69.66,-79.32 -11.03,-14.3 -22.31,-29.04 -31.65,-44.55 -2.39,17.42 1.52,33.92 7.58,50.19 8.99,24.15 22.64,46.58 38.19,67.07 18.85,24.83 41.55,48.03 65.99,67.36l17.28 12.66c3.96,2.71 10.41,5.34 13.33,8.92 -11.28,-5.27 -22.02,-12.18 -32.46,-18.96l-42.96 -29.41 -93.25 -83.99c0.59,6.16 1.32,12.19 2.98,18.17 3.13,11.22 8.39,21.59 14.41,31.53 14.43,23.78 34.43,44.65 55.82,62.32 17.86,14.77 39.14,26.21 60.11,35.96 1.72,0.8 12.5,5.24 12.73,6.28l-76.97 -35.14 -66.03 -37.83c6.85,22.24 20.07,40.57 35.75,57.5 4.45,4.81 9.18,10 14.37,14.01 19.74,17.82 43.88,29.16 68.4,38.73l15.68 5.94c2.52,0.95 5.56,1.72 7.82,3.13 -6.46,-1.24 -13.01,-3.7 -19.28,-5.74l-39.98 -14.32 -24.9 -10.3 -43.82 -18.3c6.29,13.34 13.23,26.38 22.47,37.96 15.67,19.67 36.73,32.62 60.17,41.07 3.04,1.1 7.09,1.79 9.73,3.57 -23.47,-3.84 -47.25,-10.19 -71.11,-10.75l-1.78 -0.16c-0.12,5.84 13.24,21.9 17.27,26.04 14.38,14.79 34.03,24.17 54.28,27.61 3.45,0.58 11.02,0.25 13.64,2.17 -11.82,-0.14 -23.57,0.62 -35.35,1.37 -7.11,0.45 -14.6,0.6 -21.58,1.99l-11.78 1.82c9.89,18.37 26.53,31.58 46.52,37.65 10.39,3.16 21.55,3.74 32.35,3.82 4.59,0.03 9.35,0.27 13.92,-0.32 0.43,0.37 0.31,0.15 0.42,0.64 -18.51,2.59 -37.35,4.91 -55.5,9.41 -4.35,1.08 -9.12,1.95 -13.23,3.71l0.23 0.92c1.75,2.84 4.28,4.86 6.74,7.06 11.54,10.37 24.66,15.19 39.64,18.71 7.28,1.7 14.53,2.42 22,2.47 0.58,0 2.28,-0.19 2.69,0.21l-0.92 0.3c-3.3,1.06 -6.79,1.59 -10.14,2.49 -7.25,1.96 -15.22,4.85 -21.48,9.04 -2.29,1.54 -4.59,3.1 -6.07,5.48 -0.15,2.56 0.94,4.41 2.63,6.29 3.67,4.08 9.36,7 14.34,9.12 10.76,4.56 23.1,7.84 34.83,8.12 -3.54,2.66 -7.8,5.38 -8.45,10.13 -0.38,2.85 -0.03,5.16 1.75,7.47 6.28,8.15 20.84,11.54 30.58,12.5l18.59 0.4c-4.22,4.35 -13.27,12.36 -13.09,18.98 0.07,2.72 2.45,4.99 4.43,6.61 8.34,6.9 20.9,8.54 31.3,7.45 6.8,-0.72 13.47,-2.63 20,-4.57l-0.37 0.58c-2.33,3.62 -4.9,9.42 -3.83,13.78 0.58,2.37 3.01,4.08 5.03,5.14 8.17,4.27 20.58,4.56 29.49,2.95 2.68,-0.49 6.43,-1.99 9.02,-1.92 -5.17,6.28 -11.35,11.71 -17.37,17.18l-31.25 27.2 -34.53 30.59 -39.94 34.59 -12.86 10.71c-3.52,2.62 -7.64,4.34 -11.58,6.25l-16.15 7.95 -67.92 32.66c-1.61,0.78 -11.12,4.81 -11.59,5.8 -12.73,5.3 -25.05,12.06 -37.35,18.3l-68.46 36.77c-12.6,7.26 -26.07,14.22 -36.71,24.26 -0.93,1.46 -1.52,1.95 -1.48,3.71 1.79,0.6 3.97,0.16 5.82,-0.01l0.14 -0.09 0.59 -0.07 23.21 -4.86c-7.67,5.41 -16.67,13.19 -22.23,20.81 -2.12,1.66 -4.34,5.32 -5.7,7.68l0.27 1.02c0.61,0.22 1.18,0.58 1.82,0.64 1.67,0.16 4.85,-0.84 6.53,-1.24 11.52,-2.85 22.66,-7.6 33.54,-12.29l16.72 -7.12c-2.92,4.52 -5,9.35 -6.37,14.55l-0.15 0.32c-0.32,1.61 -0.53,3.55 0.4,4.86 4.05,0.3 8.21,-0.93 12.06,-2.08 9.98,-3.02 20.02,-7.53 28.97,-12.89 4.39,-2.65 8.37,-5.9 12.74,-8.57 3.96,1.18 7.37,3.34 11.22,4.77 -0.23,4.13 -1.84,8.82 -0.93,12.91l0.96 0.39c4.17,-0.78 8.06,-2.81 11.87,-4.63 20,-9.58 38.61,-24.87 55.32,-39.31 7.66,-6.61 14.96,-14.17 23.32,-19.85 7.27,-1.05 15.06,-5.13 22.06,-7.52l32.82 -9.76c14.21,-3.78 28.58,-6.84 43.16,-8.8 29.54,-3.96 59.02,-4.05 88.76,-3.85l0.11 1.05 0.04 0.67c0.19,3.34 -0.32,5.13 -2.57,7.66 -5.9,6.6 -15.83,10.28 -24.56,10.56 -5.98,0.19 -11.42,-0.14 -17.13,-2.01 4.11,6.42 9.46,10.19 16.95,11.82 10.23,2.23 21.31,-0.7 30.29,-5.59 1.76,-0.61 3.51,-1.93 5.12,-2.9l0.82 0.3c-7.67,9.06 -17.31,15.1 -28.02,20.07 -7.31,3.38 -14.68,6.11 -22.78,6.73l-5.74 0.13 -0.38 0.81c1.92,2.38 4.68,3.29 7.61,3.9l0.8 0.8c-2.01,1.49 -5.18,1.81 -7.63,2.1l-7.41 -0.64c2.81,2.28 5.39,4.37 8.99,5.29l0.84 0.2 2.45 0.57c4.7,0.84 10.15,0.43 14.87,-0.28 12.46,-1.87 26.88,-6.64 37.26,-13.94l0.43 -0.19c10.92,-5.01 18.3,-14.22 22.36,-25.21 1.48,-6.95 0.95,-13.14 -0.81,-19.96 6.48,-0.78 13.78,-0.02 20.34,0 1.94,0.01 6.13,-0.49 7.81,0.23 0.76,1.88 1.33,4.5 3.3,5.44 3.54,1.69 8.61,0.38 11.99,-1.14 1.55,-0.71 2.88,-1.61 4.23,-2.65 0.45,3.76 -3.87,11.42 -5.66,14.8 -0.56,1.05 -1.82,2.78 -1.97,3.86 -1.72,2.02 -2.96,4.74 -4.52,6.92 -1.5,2.12 -4.22,4.3 -4.81,6.85l0.74 0.88 4.86 -0.38c7.8,-1.31 14.24,-9.15 18.6,-15.14 -3.26,10.94 -7.24,21.05 -13.41,30.73 -1.95,3.05 -3.98,6.1 -6.24,8.94 -1.19,1.51 -4.94,5.1 -5.47,6.75 -0.13,0.39 0,0.82 0,1.24 0.59,0.38 0.59,0.43 1.4,0.64 5.55,1.49 13.75,-2.25 18.36,-5.19 7.98,-5.1 14.75,-12.86 20.21,-20.51 10.27,-14.37 16.74,-28.79 20.65,-45.99 0.72,-0.95 26.82,-5.93 30.32,-6.77 34.85,-8.33 68.51,-21.38 99.61,-39.18 22.8,-13.07 45.78,-29.41 64.57,-47.76 35.11,-34.32 58.32,-77.61 71.17,-124.68 2.29,-7.53 3.66,-15.52 5.19,-23.23l6.07 -27.24c3.06,-12.29 8.01,-23.42 13.99,-34.55 10.57,-19.74 23.32,-37.55 39,-53.57 4.21,-3.47 9.8,-5.04 14.87,-6.79l22.91 -7.52c13.78,-4.72 28.04,-9.36 41.4,-15.13 0.41,-0.52 0.16,-0.16 0.54,-1.2 -9.38,-12.89 -23.68,-23.5 -37.2,-31.74z"/>
  </g>
 </g>
</svg>
